<?xml version="1.0" encoding="utf-8"?>
<!-- Generator: Adobe Illustrator 22.0.1, SVG Export Plug-In . SVG Version: 6.00 Build 0)  -->
<svg version="1.1" id="Layer_1" xmlns="http://www.w3.org/2000/svg" xmlns:xlink="http://www.w3.org/1999/xlink" x="0px" y="0px"
	 viewBox="0 0 45 45" style="enable-background:new 0 0 45 45;" xml:space="preserve">
<style type="text/css">
	.st0{fill:#626366;}
	.st1{fill:#FFFFFF;}
</style>
<g id="home_2_">
	<path class="st0" d="M39.5,0.2H5.5h0c-2.9,0-5.3,2.4-5.3,5.3v33.9c0,2.9,2.4,5.3,5.3,5.3h33.9c2.9,0,5.3-2.4,5.3-5.3V5.5
		C44.8,2.6,42.4,0.3,39.5,0.2L39.5,0.2z"/>
	<path class="st1" d="M5.6,25l0.1-6l4.2-3.2V8.5h4.2v4l8.4-6.4L39.4,19l0,6L22.5,12.1L5.6,25z M22.7,14.9c-0.1,0,12.5,9.6,12.5,9.6
		v11.4h-6.3v-8.5h-6.3v8.5H9.8V24.5C9.8,24.5,22.8,14.9,22.7,14.9"/>
</g>
</svg>
