<?xml version="1.0" encoding="utf-8"?>
<!-- Generator: Adobe Illustrator 22.0.1, SVG Export Plug-In . SVG Version: 6.00 Build 0)  -->
<svg version="1.1" id="Layer_1" xmlns="http://www.w3.org/2000/svg" xmlns:xlink="http://www.w3.org/1999/xlink" x="0px" y="0px"
	 viewBox="0 0 45 45" style="enable-background:new 0 0 45 45;" xml:space="preserve">
<style type="text/css">
	.st0{fill:#626366;}
	.st1{fill:#FFFFFF;}
</style>
<g id="map">
	<path class="st0" d="M39.5,0.2h-34h0c-2.9,0-5.3,2.4-5.3,5.3v33.9c0,2.9,2.4,5.3,5.3,5.3h34c2.9,0,5.3-2.4,5.3-5.3V5.5
		C44.8,2.6,42.4,0.2,39.5,0.2L39.5,0.2z"/>
	<path class="st1" d="M21.9,23.3c-3.5,0-6.3-2.8-6.3-6.3c0-3.5,2.8-6.3,6.3-6.3c3.5,0,6.4,2.8,6.4,6.3
		C28.3,20.4,25.4,23.3,21.9,23.3 M22,6.5c-5.8,0-10.5,4.7-10.5,10.5c0,4.1,2.4,7.7,5.8,9.4L22,39l4.7-12.6c3.4-1.7,5.8-5.3,5.8-9.4
		C32.5,11.2,27.8,6.5,22,6.5"/>
</g>
</svg>
