<?xml version="1.0" encoding="utf-8"?>
<!-- Generator: Adobe Illustrator 19.2.0, SVG Export Plug-In . SVG Version: 6.00 Build 0)  -->
<svg version="1.1" baseProfile="tiny" id="Layer_1" xmlns="http://www.w3.org/2000/svg" xmlns:xlink="http://www.w3.org/1999/xlink"
	 x="0px" y="0px" viewBox="0 0 130 130" xml:space="preserve">
<g id="Layer_1_1_">
	<path fill="#000000" d="M65,8.9C34,8.9,8.9,34,8.9,65c0,31,25.1,56.1,56.1,56.1S121.1,96,121.1,65C121.1,34,96,8.9,65,8.9z M35.9,75.3
		c-5.7,0-10.3-4.6-10.3-10.3c0-5.7,4.6-10.3,10.3-10.3c5.7,0,10.3,4.6,10.3,10.3C46.3,70.7,41.7,75.3,35.9,75.3z M65,75.3
		c-5.7,0-10.3-4.6-10.3-10.3c0-5.7,4.6-10.3,10.3-10.3c5.7,0,10.3,4.6,10.3,10.3C75.3,70.7,70.7,75.3,65,75.3z M94.1,75.3
		c-5.7,0-10.3-4.6-10.3-10.3c0-5.7,4.6-10.3,10.3-10.3c5.7,0,10.3,4.6,10.3,10.3C104.4,70.7,99.8,75.3,94.1,75.3z"/>
	<g>
		<circle fill="#FFFFFF" cx="35.9" cy="65" r="10.3"/>
		<circle fill="#FFFFFF" cx="65" cy="65" r="10.3"/>
		<circle fill="#FFFFFF" cx="94.1" cy="65" r="10.3"/>
	</g>
</g>
<g id="Layer_2">
</g>
</svg>
