<?xml version="1.0" encoding="utf-8"?>
<!-- Generator: Adobe Illustrator 19.2.0, SVG Export Plug-In . SVG Version: 6.00 Build 0)  -->
<svg version="1.1" baseProfile="tiny" id="Layer_1" xmlns="http://www.w3.org/2000/svg" xmlns:xlink="http://www.w3.org/1999/xlink"
	 x="0px" y="0px" viewBox="0 0 130 130" xml:space="preserve">
<g id="Layer_1_1_">
	<path fill="#000000" d="M65,2.6C30.6,2.6,2.6,30.6,2.6,65c0,34.4,27.9,62.4,62.4,62.4s62.4-27.9,62.4-62.4C127.4,30.6,99.4,2.6,65,2.6z M32.7,76.5
		c-6.3,0-11.5-5.1-11.5-11.5c0-6.3,5.1-11.5,11.5-11.5c6.3,0,11.5,5.1,11.5,11.5C44.2,71.3,39.1,76.5,32.7,76.5z M65,76.5
		c-6.3,0-11.5-5.1-11.5-11.5c0-6.3,5.1-11.5,11.5-11.5c6.3,0,11.5,5.1,11.5,11.5C76.5,71.3,71.3,76.5,65,76.5z M97.3,76.5
		c-6.3,0-11.5-5.1-11.5-11.5c0-6.3,5.1-11.5,11.5-11.5c6.3,0,11.5,5.1,11.5,11.5C108.8,71.3,103.6,76.5,97.3,76.5z"/>
	<g>
		<circle fill="#FFFFFF" cx="32.7" cy="65" r="11.5"/>
		<circle fill="#FFFFFF" cx="65" cy="65" r="11.5"/>
		<circle fill="#FFFFFF" cx="97.3" cy="65" r="11.5"/>
	</g>
</g>
<g id="Layer_2">
</g>
</svg>
