<?xml version="1.0" encoding="utf-8"?>
<!-- Generator: Adobe Illustrator 22.0.1, SVG Export Plug-In . SVG Version: 6.00 Build 0)  -->
<svg version="1.1" id="Layer_1" xmlns="http://www.w3.org/2000/svg" xmlns:xlink="http://www.w3.org/1999/xlink" x="0px" y="0px"
	 viewBox="0 0 178 31" style="enable-background:new 0 0 178 31;" xml:space="preserve">
<style type="text/css">
	.st0{fill:#626366;}
	.st1{fill:#FFFFFF;}
</style>
<g id="more-information">
	<path id="long_button_bg_1_" class="st0" d="M4,0c0,0-4,0-4,4v23c0,0,0,4,4,4h170c0,0,4,0,4-4V4c0,0,0-4-4-4H4z"/>
	<path id="up_arrow" class="st1" d="M165,15.3c0.2-0.2,0.7-0.2,0.9,0l3.5,3.4c0.2,0.2,0.7,0.2,0.9,0l0.6-0.6c0.2-0.2,0.2-0.7,0-0.9
		l-5-5c-0.2-0.2-0.7-0.2-0.9,0l-5,5c-0.2,0.2-0.2,0.7,0,0.9l0.6,0.7c0.2,0.2,0.7,0.2,0.9,0L165,15.3z"/>
</g>
</svg>
