<?xml version="1.0" encoding="utf-8"?>
<!-- Generator: Adobe Illustrator 22.0.1, SVG Export Plug-In . SVG Version: 6.00 Build 0)  -->
<svg version="1.1" id="Layer_1" xmlns="http://www.w3.org/2000/svg" xmlns:xlink="http://www.w3.org/1999/xlink" x="0px" y="0px"
	 viewBox="0 0 45 45" style="enable-background:new 0 0 45 45;" xml:space="preserve">
<style type="text/css">
	.st0{fill:#626366;}
	.st1{fill:#FFFFFF;}
</style>
<g id="video">
	<path class="st0" d="M39.5,0.2H5.5h0c-2.9,0-5.3,2.4-5.3,5.3v33.9c0,2.9,2.4,5.3,5.3,5.3h33.9c2.9,0,5.3-2.4,5.3-5.3V5.5
		C44.8,2.6,42.4,0.3,39.5,0.2L39.5,0.2z"/>
	<path class="st1" d="M33.9,14c0,0.6-0.5,1.1-1.1,1.1h-1.3c-0.6,0-1.1-0.5-1.1-1.1v-1.3c0-0.6,0.5-1.1,1.1-1.1h1.3
		c0.6,0,1.1,0.5,1.1,1.1V14z M33.8,31.5c0,0.6-0.5,1.1-1.1,1.1h-1.3c-0.6,0-1.1-0.5-1.1-1.1v-1.3c0-0.6,0.5-1.1,1.1-1.1h1.3
		c0.6,0,1.1,0.5,1.1,1.1V31.5z M28.1,14c0,0.6-0.5,1.1-1.1,1.1h-1.3c-0.6,0-1.1-0.5-1.1-1.1v-1.3c0-0.6,0.5-1.1,1.1-1.1H27
		c0.6,0,1.1,0.5,1.1,1.1V14z M28,31.5c0,0.6-0.5,1.1-1.1,1.1h-1.3c-0.6,0-1.1-0.5-1.1-1.1v-1.3c0-0.6,0.5-1.1,1.1-1.1h1.3
		c0.6,0,1.1,0.5,1.1,1.1V31.5z M22.2,14c0,0.6-0.5,1.1-1.1,1.1h-1.3c-0.6,0-1.1-0.5-1.1-1.1v-1.3c0-0.6,0.5-1.1,1.1-1.1h1.3
		c0.6,0,1.1,0.5,1.1,1.1V14z M22.2,31.5c0,0.6-0.5,1.1-1.1,1.1h-1.3c-0.6,0-1.1-0.5-1.1-1.1v-1.3c0-0.6,0.5-1.1,1.1-1.1h1.3
		c0.6,0,1.1,0.5,1.1,1.1V31.5z M16.4,31.5c0,0.6-0.5,1.1-1.1,1.1H14c-0.6,0-1.1-0.5-1.1-1.1v-1.3c0-0.6,0.5-1.1,1.1-1.1h1.3
		c0.6,0,1.1,0.5,1.1,1.1V31.5z M34,9.2H15.1c-1.2,0-2.2,1-2.2,2.3v5.1c0,1.6-2.5,2.6-2.5,2.6c-1.2,0-2.2,1-2.2,2.3v11.2
		c0,1.3,1,2.3,2.2,2.3h4.1l19.4,0c1.2,0,2.2-1,2.2-2.3V11.5C36.2,10.3,35.2,9.2,34,9.2"/>
</g>
</svg>
